<?xml version="1.0" encoding="UTF-8"?>
<svg width="16px" height="16px" viewBox="0 0 16 16" version="1.1" xmlns="http://www.w3.org/2000/svg" xmlns:xlink="http://www.w3.org/1999/xlink">
    <!-- Generator: Sketch 43 (38999) - http://www.bohemiancoding.com/sketch -->
    <title>7</title>
    <desc>Created with Sketch.</desc>
    <defs></defs>
    <g id="Page-1" stroke="none" stroke-width="1" fill="none" fill-rule="evenodd">
        <path d="M0,1.99406028 C0,0.892771196 0.894513756,0 1.99406028,0 L14.0059397,0 C15.1072288,0 16,0.894513756 16,1.99406028 L16,14.0059397 C16,15.1072288 15.1054862,16 14.0059397,16 L1.99406028,16 C0.892771196,16 0,15.1054862 0,14.0059397 L0,1.99406028 Z M7.86666667,7.26666667 C6.35333333,6.87333333 5.86666667,6.46666667 5.86666667,5.83333333 C5.86666667,5.10666667 6.54,4.6 7.66666667,4.6 C8.85333333,4.6 9.29333333,5.16666667 9.33333333,6 L10.8066667,6 C10.76,4.85333333 10.06,3.8 8.66666667,3.46 L8.66666667,2 L6.66666667,2 L6.66666667,3.44 C5.37333333,3.72 4.33333333,4.56 4.33333333,5.84666667 C4.33333333,7.38666667 5.60666667,8.15333333 7.46666667,8.6 C9.13333333,9 9.46666667,9.58666667 9.46666667,10.2066667 C9.46666667,10.6666667 9.14,11.4 7.66666667,11.4 C6.29333333,11.4 5.75333333,10.7866667 5.68,10 L4.21333333,10 C4.29333333,11.46 5.38666667,12.28 6.66666667,12.5533333 L6.66666667,14 L8.66666667,14 L8.66666667,12.5666667 C9.96666667,12.32 11,11.5666667 11,10.2 C11,8.30666667 9.38,7.66 7.86666667,7.26666667 Z" id="Combined-Shape" fill="#98A6AD"></path>
    </g>
</svg>