<?xml version="1.0" encoding="UTF-8"?>
<svg width="16px" height="16px" viewBox="0 0 16 16" version="1.1" xmlns="http://www.w3.org/2000/svg" xmlns:xlink="http://www.w3.org/1999/xlink">
    <!-- Generator: Sketch 43 (38999) - http://www.bohemiancoding.com/sketch -->
    <title>9</title>
    <desc>Created with Sketch.</desc>
    <defs></defs>
    <g id="Page-1" stroke="none" stroke-width="1" fill="none" fill-rule="evenodd">
        <path d="M11.8888889,1 L2.55555556,1 C1.69222222,1 1,1.7 1,2.55555556 L1,13.4444444 C1,14.3 1.69222222,15 2.55555556,15 L13.4444444,15 C14.3,15 15,14.3 15,13.4444444 L15,4.11111111 L11.8888889,1 L11.8888889,1 Z M8,13.4444444 C6.70888889,13.4444444 5.66666667,12.4022222 5.66666667,11.1111111 C5.66666667,9.82 6.70888889,8.77777778 8,8.77777778 C9.29111111,8.77777778 10.3333333,9.82 10.3333333,11.1111111 C10.3333333,12.4022222 9.29111111,13.4444444 8,13.4444444 L8,13.4444444 Z M10.3333333,5.66666667 L2.55555556,5.66666667 L2.55555556,2.55555556 L10.3333333,2.55555556 L10.3333333,5.66666667 L10.3333333,5.66666667 Z" id="Shape" fill="#98A6AD"></path>
    </g>
</svg>