<?xml version="1.0" encoding="UTF-8"?>
<svg width="16px" height="16px" viewBox="0 0 16 16" version="1.1" xmlns="http://www.w3.org/2000/svg" xmlns:xlink="http://www.w3.org/1999/xlink">
    <!-- Generator: Sketch 43 (38999) - http://www.bohemiancoding.com/sketch -->
    <title>13</title>
    <desc>Created with Sketch.</desc>
    <defs></defs>
    <g id="Page-1" stroke="none" stroke-width="1" fill="none" fill-rule="evenodd">
        <path d="M14.5454545,0 L1.45454545,0 C0.654545455,0 0,0.654545455 0,1.45454545 L0,10.1818182 C0,10.9818182 0.654545455,11.6363636 1.45454545,11.6363636 L5.09090909,11.6363636 L5.09090909,13.0909091 L10.9090909,13.0909091 L10.9090909,11.6363636 L14.5454545,11.6363636 C15.3454545,11.6363636 15.9927273,10.9818182 15.9927273,10.1818182 L16,1.45454545 C16,0.654545455 15.3454545,0 14.5454545,0 L14.5454545,0 Z M14.5454545,10.1818182 L1.45454545,10.1818182 L1.45454545,1.45454545 L14.5454545,1.45454545 L14.5454545,10.1818182 L14.5454545,10.1818182 Z M13.0909091,3.63636364 L5.09090909,3.63636364 L5.09090909,5.09090909 L13.0909091,5.09090909 L13.0909091,3.63636364 L13.0909091,3.63636364 Z M13.0909091,6.54545455 L5.09090909,6.54545455 L5.09090909,8 L13.0909091,8 L13.0909091,6.54545455 L13.0909091,6.54545455 Z M4.36363636,3.63636364 L2.90909091,3.63636364 L2.90909091,5.09090909 L4.36363636,5.09090909 L4.36363636,3.63636364 L4.36363636,3.63636364 Z M4.36363636,6.54545455 L2.90909091,6.54545455 L2.90909091,8 L4.36363636,8 L4.36363636,6.54545455 L4.36363636,6.54545455 Z" id="Shape" fill="#98A6AD"></path>
    </g>
</svg>