<?xml version="1.0" encoding="UTF-8"?>
<svg width="96px" height="96px" viewBox="0 0 96 96" version="1.1" xmlns="http://www.w3.org/2000/svg" xmlns:xlink="http://www.w3.org/1999/xlink">
    <!-- Generator: Sketch 43.1 (39012) - http://www.bohemiancoding.com/sketch -->
    <title>Group 2</title>
    <desc>Created with Sketch.</desc>
    <defs></defs>
    <g id="Page-1" stroke="none" stroke-width="1" fill="none" fill-rule="evenodd">
        <g id="Group-2">
            <rect id="Rectangle" fill="#FE644A" x="0" y="0" width="96" height="96" rx="5"></rect>
            <g id="Group" transform="translate(21.333333, 19.333333)">
                <ellipse id="Oval" fill="#FFFFFF" cx="3.70833333" cy="29.710969" rx="3.70833333" ry="3.71096896"></ellipse>
                <path d="M37.3651293,11.3830846 L33.9373339,15.3460432 C33.9373339,15.3460432 14.5215624,7.70145367 7.26307854,20.831079 C4.75215325,25.3964552 5.24177727,35.5362251 18.9281786,39.6449782 C16.756914,42.6972559 14.4608935,49.8830846 24.5507372,49.8843672 C26.86812,52.2760805 33.166582,57.9795942 33.166582,57.9795942 L40.5388984,57.9795942 C40.5388984,57.9795942 38.4657153,46.1984608 27.5209521,42.0781639 C28.8693407,40.6668221 36.1453417,32.0102223 27.5367602,23.6781328" id="Path" stroke="#FFFFFF" stroke-width="4" stroke-linecap="round" stroke-linejoin="round"></path>
                <path d="M30.7409871,36.9631124 C30.7409871,36.9631124 38.0797933,36.9434451 42.6534627,22.7800045 C45.5006307,23.0442302 50.4471669,22.7800045 50.4471669,22.7800045 C50.4471669,22.7800045 52.712972,22.9741121 52.956075,20.3613556 C53.1991781,17.748599 52.008016,9.42420537 42.3962606,7.55367521 C39.9554036,6.00124206 34.8933919,-0.672809555 19.2083333,0.0553076714" id="Path-2" stroke="#FFFFFF" stroke-width="4" stroke-linecap="round" stroke-linejoin="round"></path>
            </g>
        </g>
    </g>
</svg>