<?xml version="1.0" encoding="UTF-8"?>
<svg width="16px" height="16px" viewBox="0 0 16 16" version="1.1" xmlns="http://www.w3.org/2000/svg" xmlns:xlink="http://www.w3.org/1999/xlink">
    <!-- Generator: Sketch 43 (38999) - http://www.bohemiancoding.com/sketch -->
    <title>11</title>
    <desc>Created with Sketch.</desc>
    <defs></defs>
    <g id="Page-1" stroke="none" stroke-width="1" fill="none" fill-rule="evenodd">
        <g id="Group-5" transform="translate(2.000000, 0.000000)" fill="#98A6AD">
            <path d="M4.28571429,12.8571429 C4.28571429,13.5555556 4.85079365,14.1206349 5.54920635,14.1206349 C6.24761905,14.1206349 6.81269841,13.5555556 6.81269841,12.8571429 L4.28571429,12.8571429 L4.28571429,12.8571429 Z" id="Path"></path>
            <path d="M10.0825397,9.40952381 L10.0825397,5.71428571 C10.0825397,3.65079365 8.65396825,1.92380952 6.72380952,1.46666667 L6.72380952,1.00952381 C6.72380952,0.450793651 6.27301587,0 5.71428571,0 C5.15555556,0 4.7047619,0.450793651 4.7047619,1.00952381 L4.7047619,1.46666667 C2.77460317,1.92380952 1.34603175,3.65079365 1.34603175,5.71428571 L1.34603175,9.40952381 L0,10.7555556 L0,11.4285714 L11.4285714,11.4285714 L11.4285714,10.7555556 L10.0825397,9.40952381 L10.0825397,9.40952381 Z" id="Path"></path>
        </g>
    </g>
</svg>