<?xml version="1.0" encoding="UTF-8"?>
<svg width="16px" height="16px" viewBox="0 0 16 16" version="1.1" xmlns="http://www.w3.org/2000/svg" xmlns:xlink="http://www.w3.org/1999/xlink">
    <!-- Generator: Sketch 43 (38999) - http://www.bohemiancoding.com/sketch -->
    <title>6</title>
    <desc>Created with Sketch.</desc>
    <defs></defs>
    <g id="Page-1" stroke="none" stroke-width="1" fill="none" fill-rule="evenodd">
        <path d="M15.1578947,12.6315789 L15.1578947,13.4736842 C15.1578947,14.4 14.4,15.1578947 13.4736842,15.1578947 L1.68421053,15.1578947 C0.749473684,15.1578947 0,14.4 0,13.4736842 L0,1.68421053 C0,0.757894737 0.749473684,0 1.68421053,0 L13.4736842,0 C14.4,0 15.1578947,0.757894737 15.1578947,1.68421053 L15.1578947,2.52631579 L7.57894737,2.52631579 C6.64421053,2.52631579 5.89473684,3.28421053 5.89473684,4.21052632 L5.89473684,10.9473684 C5.89473684,11.8736842 6.64421053,12.6315789 7.57894737,12.6315789 L15.1578947,12.6315789 L15.1578947,12.6315789 Z M7.57894737,10.9473684 L16,10.9473684 L16,4.21052632 L7.57894737,4.21052632 L7.57894737,10.9473684 L7.57894737,10.9473684 Z M10.9473684,8.84210526 C10.2484211,8.84210526 9.68421053,8.27789474 9.68421053,7.57894737 C9.68421053,6.88 10.2484211,6.31578947 10.9473684,6.31578947 C11.6463158,6.31578947 12.2105263,6.88 12.2105263,7.57894737 C12.2105263,8.27789474 11.6463158,8.84210526 10.9473684,8.84210526 L10.9473684,8.84210526 Z" id="Shape" fill="#98A6AD"></path>
    </g>
</svg>