<?xml version="1.0" encoding="UTF-8"?>
<svg width="16px" height="16px" viewBox="0 0 16 16" version="1.1" xmlns="http://www.w3.org/2000/svg" xmlns:xlink="http://www.w3.org/1999/xlink">
    <!-- Generator: Sketch 43 (38999) - http://www.bohemiancoding.com/sketch -->
    <title>10</title>
    <desc>Created with Sketch.</desc>
    <defs></defs>
    <g id="Page-1" stroke="none" stroke-width="1" fill="none" fill-rule="evenodd">
        <path d="M13,1.5 L9.865,1.5 C9.55,0.63 8.725,0 7.75,0 C6.775,0 5.95,0.63 5.635,1.5 L2.5,1.5 C1.675,1.5 1,2.175 1,3 L1,13.5 C1,14.325 1.675,15 2.5,15 L13,15 C13.825,15 14.5,14.325 14.5,13.5 L14.5,3 C14.5,2.175 13.825,1.5 13,1.5 L13,1.5 Z M7.75,1.5 C8.1625,1.5 8.5,1.8375 8.5,2.25 C8.5,2.6625 8.1625,3 7.75,3 C7.3375,3 7,2.6625 7,2.25 C7,1.8375 7.3375,1.5 7.75,1.5 L7.75,1.5 Z M9.25,12 L4,12 L4,10.5 L9.25,10.5 L9.25,12 L9.25,12 Z M11.5,9 L4,9 L4,7.5 L11.5,7.5 L11.5,9 L11.5,9 Z M11.5,6 L4,6 L4,4.5 L11.5,4.5 L11.5,6 L11.5,6 Z" id="Shape" fill="#98A6AD"></path>
    </g>
</svg>