<?xml version="1.0" encoding="UTF-8"?>
<svg width="16px" height="16px" viewBox="0 0 16 16" version="1.1" xmlns="http://www.w3.org/2000/svg" xmlns:xlink="http://www.w3.org/1999/xlink">
    <!-- Generator: Sketch 43 (38999) - http://www.bohemiancoding.com/sketch -->
    <title>3</title>
    <desc>Created with Sketch.</desc>
    <defs></defs>
    <g id="Page-1" stroke="none" stroke-width="1" fill="none" fill-rule="evenodd">
        <path d="M8,0 C3.584,0 0,3.584 0,8 C0,12.416 3.584,16 8,16 C12.416,16 16,12.416 16,8 C16,3.584 12.416,0 8,0 L8,0 Z M3.6,5.6 L6.4,2.8 L9.2,5.6 L7.2,5.6 L7.2,8.8 L5.6,8.8 L5.6,5.6 L3.6,5.6 L3.6,5.6 Z M12.4,10.4 L9.6,13.2 L6.8,10.4 L8.8,10.4 L8.8,7.2 L10.4,7.2 L10.4,10.4 L12.4,10.4 L12.4,10.4 Z" id="Shape" fill="#98A6AD"></path>
    </g>
</svg>